<?xml version="1.0" encoding="UTF-8" standalone="no"?>
<svg
   xmlns:dc="http://purl.org/dc/elements/1.1/"
   xmlns:cc="http://creativecommons.org/ns#"
   xmlns:rdf="http://www.w3.org/1999/02/22-rdf-syntax-ns#"
   xmlns:svg="http://www.w3.org/2000/svg"
   xmlns="http://www.w3.org/2000/svg"
   xmlns:sodipodi="http://sodipodi.sourceforge.net/DTD/sodipodi-0.dtd"
   xmlns:inkscape="http://www.inkscape.org/namespaces/inkscape"
   id="Layer_5"
   enable-background="new 0 0 64 64"
   height="512px"
   viewBox="0 0 64 64"
   width="512px"
   class=""
   version="1.1"
   sodipodi:docname="dashboard(1).svg"
   inkscape:version="0.92.4 (5da689c313, 2019-01-14)">
  <metadata
     id="metadata39">
    <rdf:RDF>
      <cc:Work
         rdf:about="">
        <dc:format>image/svg+xml</dc:format>
        <dc:type
           rdf:resource="http://purl.org/dc/dcmitype/StillImage" />
        <dc:title></dc:title>
      </cc:Work>
    </rdf:RDF>
  </metadata>
  <defs
     id="defs37" />
  <sodipodi:namedview
     pagecolor="#ffffff"
     bordercolor="#666666"
     borderopacity="1"
     objecttolerance="10"
     gridtolerance="10"
     guidetolerance="10"
     inkscape:pageopacity="0"
     inkscape:pageshadow="2"
     inkscape:window-width="1920"
     inkscape:window-height="1001"
     id="namedview35"
     showgrid="false"
     inkscape:zoom="1.3037281"
     inkscape:cx="344.99659"
     inkscape:cy="266.36388"
     inkscape:window-x="-9"
     inkscape:window-y="-9"
     inkscape:window-maximized="1"
     inkscape:current-layer="Layer_5" />
  <g
     id="g32">
    <g
       id="g30">
      <circle
         cx="56"
         cy="8"
         r="5"
         data-original="#000000"
         class="active-path"
         data-old_color="#000000"
         fill="#81C784"
         id="circle2" />
      <path
         d="m23 30h2v12h-2z"
         data-original="#000000"
         class="active-path"
         data-old_color="#000000"
         fill="#81C784"
         id="path4" />
      <path
         d="m29 32h6v4.453c2.934-3.335 7.22-5.453 12-5.453 2.916 0 5.643.797 8 2.165v-18.245c-1.183-.17-2.269-.636-3.184-1.322l-6.117 6.116c.188.392.301.824.301 1.286 0 1.654-1.346 3-3 3s-3-1.346-3-3c0-.462.113-.894.301-1.285l-2.015-2.015c-.392.187-.824.3-1.286.3s-.894-.113-1.285-.301l-5.015 5.015c.187.392.3.824.3 1.286 0 1.654-1.346 3-3 3s-3-1.346-3-3 1.346-3 3-3c.462 0 .894.113 1.285.301l5.015-5.015c-.187-.392-.3-.824-.3-1.286 0-1.654 1.346-3 3-3s3 1.346 3 3c0 .462-.113.894-.301 1.285l2.015 2.015c.392-.187.824-.3 1.286-.3s.894.113 1.285.301l6.116-6.116c-.488-.651-.868-1.386-1.107-2.185h-46.294v36h28.051c.042-.678.117-1.347.241-2h-2.292zm-20-20h14v2h-14zm0 4h14v2h-14zm0 4h14v2h-14zm0 4h14v2h-14zm-4-12h2v2h-2zm0 4h2v2h-2zm0 4h2v2h-2zm0 4h2v2h-2zm6 20h-6v-10h6zm8 0h-6v-8h6zm8 0h-6v-16h6z"
         data-original="#000000"
         class="active-path"
         data-old_color="#000000"
         fill="#81C784"
         id="path6" />
      <path
         d="m7 36h2v6h-2z"
         data-original="#000000"
         class="active-path"
         data-old_color="#000000"
         fill="#81C784"
         id="path10" />
      <circle
         cx="43"
         cy="21"
         r="1"
         data-original="#000000"
         class="active-path"
         data-old_color="#000000"
         fill="#81C784"
         id="circle12" />
      <path
         d="m15 38h2v4h-2z"
         data-original="#000000"
         class="active-path"
         data-old_color="#000000"
         fill="#81C784"
         id="path14" />
      <circle
         cx="37"
         cy="15"
         r="1"
         data-original="#000000"
         class="active-path"
         data-old_color="#000000"
         fill="#81C784"
         id="circle16" />
      <path
         d="m33 34h-2v8h.811c.314-.951.71-1.865 1.189-2.729z"
         data-original="#000000"
         class="active-path"
         data-old_color="#000000"
         fill="#81C784"
         id="path18" />
      <circle
         cx="28"
         cy="24"
         r="1"
         data-original="#000000"
         class="active-path"
         data-old_color="#000000"
         fill="#81C784"
         id="circle26" />
    </g>
  </g>
  <g
     id="g1022"
     transform="matrix(0.05371094,0,0,0.05371102,32.81417,32.737132)">
    <g
       id="g1020">
      <path
         id="path994"
         data-old_color="#000000"
         class="active-path"
         data-original="#000000"
         d="m 500.879,289.165 c -7.72,-2.07 -16.152,2.326 -18.371,10.606 l -0.347,1.296 -34.708,-9.3 c 2.162,-11.599 3.304,-23.552 3.304,-35.768 0,-12.217 -1.143,-24.171 -3.305,-35.771 l 34.708,-9.3 0.347,1.296 c 2.219,8.281 10.652,12.676 18.371,10.606 8.002,-2.144 12.751,-10.369 10.606,-18.371 l -8.459,-31.569 c -2.145,-8.002 -10.365,-12.752 -18.371,-10.606 -8.002,2.144 -12.75,10.369 -10.606,18.371 l 0.347,1.296 -34.718,9.303 c -8.09,-22.882 -20.335,-43.815 -35.834,-61.884 l 25.481,-25.481 0.949,0.949 c 5.856,5.857 15.355,5.859 21.213,0 5.858,-5.858 5.858,-15.355 0,-21.213 l -23.11,-23.11 c -5.857,-5.858 -15.355,-5.858 -21.213,0 -5.858,5.858 -5.858,15.355 0,21.213 l 0.949,0.949 -25.481,25.48 C 364.56,92.657 343.626,80.411 320.743,72.322 l 9.302,-34.716 1.296,0.347 c 8.314,2.228 16.314,-2.928 18.371,-10.606 2.144,-8.002 -2.604,-16.227 -10.606,-18.371 L 307.537,0.517 c -8.003,-2.145 -16.228,2.605 -18.371,10.606 -2.144,8.002 2.604,16.227 10.606,18.371 l 1.296,0.347 -9.3,34.708 C 280.169,62.387 268.216,61.245 256,61.245 c -12.216,0 -24.169,1.142 -35.768,3.304 l -9.3,-34.708 1.296,-0.347 C 220.23,27.35 224.978,19.125 222.834,11.123 220.691,3.12 212.466,-1.63 204.464,0.515 l -31.569,8.459 c -8.002,2.144 -12.75,10.369 -10.606,18.371 2.057,7.679 10.057,12.835 18.371,10.606 l 1.296,-0.347 9.302,34.716 c -22.883,8.09 -43.817,20.335 -61.888,35.835 l -25.481,-25.48 0.949,-0.949 c 5.858,-5.858 5.858,-15.355 0,-21.213 -5.857,-5.858 -15.355,-5.858 -21.213,0 l -23.11,23.11 c -5.858,5.858 -5.858,15.355 0,21.213 5.858,5.859 15.357,5.857 21.213,0 l 0.949,-0.949 25.481,25.481 c -15.499,18.07 -27.744,39.003 -35.834,61.884 l -34.718,-9.303 0.347,-1.296 c 2.144,-8.002 -2.604,-16.227 -10.606,-18.371 -8.006,-2.146 -16.227,2.604 -18.371,10.606 L 0.515,204.46 c -2.144,8.002 2.604,16.227 10.606,18.371 7.72,2.07 16.152,-2.326 18.371,-10.606 l 0.347,-1.296 34.708,9.3 c -2.162,11.6 -3.305,23.554 -3.305,35.771 0,12.216 1.142,24.169 3.304,35.768 l -34.708,9.3 -0.347,-1.296 C 27.272,291.491 18.839,287.096 11.12,289.166 3.118,291.31 -1.63,299.535 0.514,307.537 l 8.459,31.569 c 2.145,8.002 10.365,12.752 18.371,10.606 8.002,-2.144 12.75,-10.369 10.606,-18.371 l -0.347,-1.296 34.716,-9.302 c 8.09,22.883 20.335,43.817 35.835,61.888 l -25.481,25.481 -0.949,-0.949 c -5.856,-5.857 -15.355,-5.859 -21.213,0 -5.858,5.858 -5.858,15.355 0,21.213 l 23.11,23.11 c 5.857,5.858 15.355,5.858 21.213,0 5.858,-5.858 5.858,-15.355 0,-21.213 l -0.949,-0.949 25.481,-25.48 c 18.071,15.5 39.005,27.746 61.888,35.835 l -9.302,34.716 -1.296,-0.347 c -8.314,-2.228 -16.314,2.928 -18.371,10.606 -2.144,8.002 2.604,16.227 10.606,18.371 l 31.569,8.459 c 8.003,2.145 16.228,-2.605 18.371,-10.606 2.144,-8.002 -2.604,-16.227 -10.606,-18.371 l -1.296,-0.347 9.3,-34.708 c 11.599,2.162 23.552,3.304 35.768,3.304 12.216,0 24.169,-1.142 35.768,-3.304 l 9.3,34.708 -1.296,0.347 c -8.002,2.144 -12.75,10.369 -10.606,18.371 2.144,8.001 10.368,12.751 18.371,10.606 l 31.569,-8.459 c 8.002,-2.144 12.75,-10.369 10.606,-18.371 -2.057,-7.679 -10.057,-12.835 -18.371,-10.606 l -1.296,0.347 -9.302,-34.716 c 22.883,-8.09 43.817,-20.335 61.888,-35.835 l 25.481,25.48 -0.949,0.949 c -5.858,5.858 -5.858,15.355 0,21.213 5.857,5.858 15.355,5.858 21.213,0 l 23.11,-23.11 c 5.858,-5.858 5.858,-15.355 0,-21.213 -5.858,-5.859 -15.357,-5.857 -21.213,0 l -0.949,0.949 -25.481,-25.481 c 15.5,-18.071 27.746,-39.005 35.835,-61.888 l 34.716,9.302 -0.347,1.296 c -2.144,8.002 2.604,16.227 10.606,18.371 8.006,2.146 16.227,-2.604 18.371,-10.606 l 8.459,-31.569 c 2.149,-8.003 -2.599,-16.228 -10.601,-18.372 z M 256,420.757 C 165.153,420.757 91.243,346.847 91.243,256 91.243,165.153 165.153,91.243 256,91.243 c 90.847,0 164.757,73.91 164.757,164.757 0,90.847 -73.91,164.757 -164.757,164.757 z"
         inkscape:connector-curvature="0"
         style="fill:#81c784" />
      <circle
         id="circle996"
         data-old_color="#000000"
         class="active-path"
         data-original="#000000"
         r="15"
         cy="143.533"
         cx="256"
         style="fill:#81c784" />
      <circle
         id="circle998"
         data-old_color="#000000"
         class="active-path"
         data-original="#000000"
         r="15"
         cy="368.46701"
         cx="256"
         style="fill:#81c784" />
      <circle
         id="circle1000"
         data-old_color="#000000"
         class="active-path"
         data-original="#000000"
         r="15"
         cy="288.133"
         cx="223.867"
         style="fill:#81c784" />
      <circle
         id="circle1002"
         data-old_color="#000000"
         class="active-path"
         data-original="#000000"
         r="15"
         cy="288.133"
         cx="288.133"
         style="fill:#81c784" />
      <circle
         id="circle1004"
         data-old_color="#000000"
         class="active-path"
         data-original="#000000"
         r="15"
         cy="223.867"
         cx="288.133"
         style="fill:#81c784" />
      <circle
         id="circle1006"
         data-old_color="#000000"
         class="active-path"
         data-original="#000000"
         r="15"
         cy="223.867"
         cx="223.867"
         style="fill:#81c784" />
      <circle
         id="circle1008"
         data-old_color="#000000"
         class="active-path"
         data-original="#000000"
         r="15"
         cy="256"
         cx="368.46701"
         style="fill:#81c784" />
      <circle
         id="circle1010"
         data-old_color="#000000"
         class="active-path"
         data-original="#000000"
         r="15"
         cy="256"
         cx="143.533"
         style="fill:#81c784" />
      <circle
         id="circle1012"
         data-old_color="#000000"
         class="active-path"
         data-original="#000000"
         r="15"
         cy="176.478"
         cx="335.526"
         style="fill:#81c784" />
      <circle
         id="circle1014"
         data-old_color="#000000"
         class="active-path"
         data-original="#000000"
         r="15"
         cy="335.53"
         cx="176.474"
         style="fill:#81c784" />
      <circle
         id="circle1016"
         data-old_color="#000000"
         class="active-path"
         data-original="#000000"
         r="15"
         cy="335.53"
         cx="335.526"
         style="fill:#81c784" />
      <circle
         id="circle1018"
         data-old_color="#000000"
         class="active-path"
         data-original="#000000"
         r="15"
         cy="176.478"
         cx="176.474"
         style="fill:#81c784" />
    </g>
  </g>
</svg>
