<?xml version="1.0"?>
<svg xmlns="http://www.w3.org/2000/svg" xmlns:xlink="http://www.w3.org/1999/xlink" viewBox="0 0 512 512" width="512" height="512"><defs><style>.cls-1{fill:url(#linear-gradient);}</style><linearGradient id="linear-gradient" x1="51.89" y1="26.89" x2="458.16" y2="433.15" gradientUnits="userSpaceOnUse"><stop offset="0" stop-color="#a1ce62"/><stop offset="1" stop-color="#57c1ae"/></linearGradient></defs><g id="Gradient"><path class="cls-1" d="M206.09,381.81a8,8,0,0,0-5.66-2.35H185.27l-7.85-15.68a8,8,0,0,0-7.15-4.42H130.05a8,8,0,0,0-8,8v30.16a7.92,7.92,0,0,0,.85,3.57l8.26,16.53-18.32,36.64a8,8,0,0,0,0,7.16l10.06,20.1a8,8,0,0,0,3.58,3.58l20.1,10.06c5.07,2.73,11.76-1.39,11.58-7.16V471.21l47.93-47.93a8.07,8.07,0,0,0,1.49-2.08l10.06-20.11a8,8,0,0,0-1.5-9.23Zm-12.24,31.08L144.5,462.24a8,8,0,0,0-2.34,5.65v7.17L136,472l-7.08-14.14,18.32-36.64a8,8,0,0,0,0-7.15l-9.21-18.42V375.36h27.27L173.17,391a8,8,0,0,0,7.15,4.42h16.79l3.64,3.64Zm297.3-164.24-50.29-21.56,13.41-36.84C526.5,150.27,498.64,40.79,416,40c-82.64.8-110.49,110.29-38.27,150.25L384.19,208c-.9.15-35.16-.44-34.72.4l-6.21,2.07C353,112.82,219.3,84.26,187.63,176c-2.16,0-5.27-.29-7.21.84L166.11,184H129l5.49-17.86C206.48,126,178.51,16.78,96,16c-82.52.79-110.47,110-38.48,150.14L80,239l-12.37-6.19A8.08,8.08,0,0,0,64,232H24a8,8,0,0,0-8,8v32a8,8,0,0,0,8,8H40a8,8,0,0,0,5.66-2.34L51.31,272h1.38l16,16-2.35,2.34a8,8,0,0,0-.74,10.46l24,32c-.75.55,25.32,17.24,26,17.86a8,8,0,0,0,12-9.19l-5.47-16.41,16.41-5.47a8,8,0,0,0,3.13-1.93l32-32a8,8,0,0,0,0-11.32l-15.09-15.08-7.41-14.84A8,8,0,0,0,144,240H111.75l4.93-16h40l3.31,3.31V240a8,8,0,0,0,4.42,7.16l16,8a8,8,0,0,0,7.16,0l12.84-6.42a80,80,0,0,0,25,21.41l2.69,8.75-5.88,1.3a8,8,0,0,0-5.86,5.28l-8,24A8,8,0,0,0,216,320h24.81l2.46,8H232a8,8,0,0,0-6.66,3.56l-16,24a8,8,0,0,0-.5,8l8,16A8,8,0,0,0,224,384h16v8a8.07,8.07,0,0,0,1.34,4.44l14.66,22V440c-.09,7,8.75,10.7,13.66,5.66l32-32a8,8,0,0,0,1.5-9.24l-5.43-10.84,19.93-19.92a8,8,0,0,0,0-11.32c-1.49-1.29-8.35-8.87-10.08-9.5l-16-8A8.08,8.08,0,0,0,288,344h-8.3l8.7-28.28,1.94,1.94A8,8,0,0,0,296,320h12.69l29.65,29.66a8,8,0,0,0,11.32,0L360,339.31V360a8,8,0,0,0,3.56,6.66l24,16a8,8,0,0,0,12-9.19l-6.76-20.29,12.94-19.41,22.67-15.11a8.15,8.15,0,0,0,2.72-3.08l14.51-29c1-.43,22.68-7.26,22.77-7.88l24-16C497.68,259.34,496.91,251,491.15,248.65ZM352,120c3.51-84.9,124.49-84.89,128,0a63.67,63.67,0,0,1-35.72,57.42,8,8,0,0,0-4,4.43L416,248.61l-24.3-66.76a8,8,0,0,0-4-4.43A63.67,63.67,0,0,1,352,120ZM67.72,153.42C7.42,123.05,28.51,32.75,96,32a64,64,0,0,1,28.28,121.42,8,8,0,0,0-4.11,4.82c-4.91,15.94-19.47,63.3-24.17,78.56L71.83,158.24A8,8,0,0,0,67.72,153.42ZM139.06,256l5.78,11.58c.43,1.55,10.67,11,11.85,12.42l-25,25-22.21,7.4a8,8,0,0,0-5.06,10.12l.63,1.88-3.46-2.31-19-25.35,3.1-3.09a8,8,0,0,0,0-11.32l-24-24A8,8,0,0,0,56,256c-12.74,0-10.29-1-19.31,8H32V248H62.11l14.31,7.16A8.08,8.08,0,0,0,80,256h5.17l3.18,10.35a8,8,0,0,0,15.3,0L106.83,256ZM184,239.06l-8-4c-.08-17.28,1.68-12.45-10.34-24.72A8,8,0,0,0,160,208H121.6l1.07-3.47,7.55-4.53H168a8.08,8.08,0,0,0,3.58-.84l12.7-6.36A80.34,80.34,0,0,0,192,235.07Zm26.23-4.16a8.32,8.32,0,0,0-.9-1.42C183.21,191.74,214.41,135.54,264,136c42.72-.55,74.44,43.11,61,83.54a7.61,7.61,0,0,0-.35,1.05,63.69,63.69,0,0,1-32.36,36.83,8,8,0,0,0-4.1,4.82L277,298.47l-13,42.33-2.18-7.1s-22-71.39-22-71.46a8,8,0,0,0-4.1-4.82A64.06,64.06,0,0,1,210.23,234.9ZM227.1,304l3.06-9.17,2.72-.6,3,9.77Zm59,56,13.15,6.58,1.43,1.42-18.35,18.34a8,8,0,0,0-1.5,9.24l5.43,10.84L272,420.69c-.07-2.74.47-6.81-1.34-9.13l-14.66-22V376a8,8,0,0,0-8-8H228.94l-3.71-7.42L236.28,344h11.91l8.11,26.35a8,8,0,0,0,15.29,0L274.78,360ZM376,355.72V352a13.53,13.53,0,0,0,1,4.39Zm84.45-91-23,7.66a8,8,0,0,0-4.63,4l-15,30.1c-1.29,1.13-24.63,15.72-24.45,17l-16,24A8,8,0,0,0,376,352V336a8,8,0,0,0-2.34-5.66l-8-8a8,8,0,0,0-11.32,0L344,332.69l-26.34-26.35A8,8,0,0,0,312,304H299.31l-5.58-5.59,8.7-28.27a79.53,79.53,0,0,0,36.18-41.24L353.3,224h28.28l11.14,7.43,15.76,43.31c2.49,6.95,12.55,7,15,0l11.86-32.59,35.89,15.39ZM421.66,394.34a8.06,8.06,0,0,0-12.82,2.08L403.06,408H384a8,8,0,0,0-8,8v24a8,8,0,0,0,8,8h14.11l14.31,7.16A8.08,8.08,0,0,0,416,456h16a8,8,0,0,0,7.59-5.47l8-24a8,8,0,0,0-1.93-8.19ZM426.23,440h-8.34l-14.31-7.16A8.08,8.08,0,0,0,400,432h-8v-8h16a8,8,0,0,0,7.16-4.42l3-6.08,12.66,12.66ZM392.08,163.9a8,8,0,0,0,5.32-14l2.43-2.43a31.59,31.59,0,0,0,8.23,3.42v9.25c-9,2.45-7.39,15.57,2,15.74h12c9.39-.17,11-13.29,2-15.74V150.9a31.67,31.67,0,0,0,8.22-3.42l2.43,2.43c-5.47,4.87-1.93,14,5.32,14a8,8,0,0,0,5.65-2.34l6-6s6-6,6-6c7.39-8-4.06-18.81-11.65-11l-2.43-2.43a31.59,31.59,0,0,0,3.42-8.23h9.25c2.46,9,15.57,7.39,15.74-2V114c-.17-9.39-13.28-11-15.74-2H447a31.67,31.67,0,0,0-3.42-8.22l2.43-2.43c7.59,7.84,19-3,11.65-11l-6-6h0l-6-6c-8-7.39-18.81,4.06-11,11.65l-2.43,2.43A31.67,31.67,0,0,0,424.06,89V79.74c8.95-2.46,7.38-15.57-2-15.74h-12c-9.38.17-11,13.28-2,15.74V89a31.59,31.59,0,0,0-8.23,3.42L397.4,90c7.84-7.59-3-19-11-11.65l-12,12c-7.39,8,4.06,18.81,11.65,11l2.43,2.43a31.67,31.67,0,0,0-3.42,8.22h-9.25c-2.45-9-15.57-7.38-15.74,2v12c.17,9.38,13.29,11,15.74,2h9.25a31.59,31.59,0,0,0,3.42,8.23l-2.43,2.43c-7.59-7.84-19,3-11.65,11l6,6,6,6A8,8,0,0,0,392.08,163.9Zm24-59.93a16,16,0,0,1,16,16c-.88,21.19-31.07,21.19-31.95,0A16,16,0,0,1,416.06,104Zm-314,47.92c9.39-.17,11-13.29,2-15.74V126.9a31.67,31.67,0,0,0,8.22-3.42l2.43,2.43c-5.47,4.87-1.93,14,5.32,14a8,8,0,0,0,5.65-2.34l6-6s6-6,6-6c7.39-8-4.06-18.81-11.65-11l-2.43-2.43a31.59,31.59,0,0,0,3.42-8.23h9.25c2.46,9,15.57,7.39,15.74-2V90c-.17-9.39-13.28-11-15.74-2H127a31.67,31.67,0,0,0-3.42-8.22L126,77.29c7.59,7.84,19-3,11.65-11l-6-6h0l-6-6c-8-7.39-18.81,4.06-11,11.65l-2.43,2.43A31.67,31.67,0,0,0,104.06,65V55.74c9-2.46,7.38-15.57-2-15.74h-12c-9.38.17-11,13.28-2,15.74V65a31.59,31.59,0,0,0-8.23,3.42L77.4,66c7.84-7.59-3-19-11-11.65l-12,12c-7.39,8,4.06,18.81,11.65,11l2.43,2.43a31.67,31.67,0,0,0-3.42,8.22H55.85c-2.45-9-15.57-7.38-15.74,2v12c.17,9.38,13.29,11,15.74,2H65.1a31.59,31.59,0,0,0,3.42,8.23l-2.43,2.43c-7.59-7.84-19.05,3-11.65,11l6,6,6,6a8,8,0,1,0,11-11.65l2.43-2.43a31.59,31.59,0,0,0,8.23,3.42v9.25c-9,2.46-7.39,15.57,2,15.74Zm-22-55.95a16,16,0,0,1,16-16c21.19.88,21.18,31.07,0,32A16,16,0,0,1,80.08,95.94ZM240,244a8,8,0,0,0,5.32-14l2.43-2.43a31.67,31.67,0,0,0,8.22,3.42v9.25c-8.95,2.46-7.38,15.57,2,15.74h12c9.38-.17,11-13.28,2-15.74V231a31.59,31.59,0,0,0,8.23-3.42L282.6,230c-5.48,4.87-1.93,14,5.32,14a8,8,0,0,0,5.65-2.34l6-6s6-6,6-6c7.39-8-4.06-18.82-11.65-11l-2.43-2.43a31.67,31.67,0,0,0,3.42-8.22h9.25c2.45,8.95,15.57,7.38,15.74-2v-12c-.17-9.38-13.29-11-15.74-2H294.9a31.59,31.59,0,0,0-3.42-8.23l2.43-2.43c7.59,7.84,19-3,11.65-11l-12-12c-8-7.39-18.81,4.06-11,11.65l-2.43,2.43a31.59,31.59,0,0,0-8.23-3.42v-9.25c9-2.45,7.39-15.57-2-15.74H258c-9.39.17-11,13.29-2,15.74v9.25a31.67,31.67,0,0,0-8.22,3.42l-2.43-2.43c7.84-7.58-3-19-11-11.65l-12,12c-7.39,8,4.06,18.81,11.65,11l2.43,2.43a31.59,31.59,0,0,0-3.42,8.23h-9.25c-2.46-9-15.57-7.39-15.74,2v12c.17,9.39,13.28,11,15.74,2H233a31.67,31.67,0,0,0,3.42,8.22L234,218.71c-7.59-7.84-19,3-11.65,11l6,6,6,6A8,8,0,0,0,240,244Zm24-59.93a16,16,0,0,1,16,16c-.88,21.19-31.07,21.18-32,0A16,16,0,0,1,263.94,184.08Z"/></g></svg>
