<svg id="Capa_1" enable-background="new 0 0 511.074 511.074" height="512" viewBox="0 0 511.074 511.074" width="512" xmlns="http://www.w3.org/2000/svg"><g><g><g><path d="m255.537 511.074c-68.256 0-224.901-222.421-224.901-222.421s50.16-219.618 53.221-222.401c47.101-42.817 107.59-66.252 171.68-66.252 68.256 0 132.427 26.581 180.691 74.845 17.544 17.544 32.222 37.189 43.801 58.368l-10.227 53.964 41.133 59.859c.092 2.826.138 5.659.138 8.5 0 68.256-26.58 132.428-74.845 180.692-48.264 48.265-112.435 74.846-180.691 74.846z" fill="#bcfbff"/><path d="m510.936 247.037-41.133-59.859 10.227-53.964c-11.578-21.179-26.257-40.825-43.801-58.368-44.636-44.637-102.88-70.708-165.374-74.379v510.139c62.494-3.671 120.738-29.742 165.374-74.378 48.265-48.264 74.845-112.436 74.845-180.692-.001-2.84-.047-5.674-.138-8.499z" fill="#6daaf9"/></g><g><path d="m509.889 230.759c-.008-.057-.025-.113-.03-.17-3.319-34.236-13.394-67.049-29.906-97.334h-49.728c-31.33 0-56.818 25.521-56.818 56.891s25.488 56.891 56.818 56.891h80.695c-.179-5.457-.516-10.886-1.031-16.278z" fill="#7ad783"/><g><path d="m237.093 347.523c31.33 0 56.818-25.689 56.818-57.264 0-31.122-25.488-56.441-56.818-56.441h-102.09c-14.788 0-26.818-12.064-26.818-26.891 0-14.828 12.031-26.891 26.818-26.891.081 0 .161 0 .242-.002 31.114-.253 56.349-25.676 56.349-56.889 0-31.37-25.488-56.891-56.818-56.891h-50.917c-3.061 2.783-6.068 5.645-9.014 8.59-48.264 48.265-74.845 112.436-74.845 180.693 0 68.256 26.58 132.427 74.845 180.692 47.816 47.816 111.247 74.333 178.793 74.822h.06.038c1.987 0 3.956-.395 5.789-1.162 12.39-5.184 22.463-14.512 28.364-26.265 3.939-7.844 6.021-16.637 6.021-25.429 0-31.37-25.488-56.891-56.818-56.891-14.788 0-26.818-12.063-26.818-26.891s12.031-26.89 26.819-26.89z" fill="#c3f463"/><g fill="#7ad783"><path d="m270.855 336.283c13.977-10.442 23.056-27.183 23.056-46.024 0-18.57-9.079-35.071-23.056-45.363z"/><path d="m270.855 412.471v91.063c7.19-5.19 13.061-11.997 17.034-19.91 3.939-7.844 6.021-16.637 6.021-25.429 0-18.718-9.078-35.35-23.055-45.724z"/></g></g></g></g><g><g><g><path d="m83.256 288.228c-5.158 6.127-14.579 6.127-19.737 0-5.414-6.431-12.453-15.124-19.556-24.834-13.424-18.351-29.425-43.749-29.425-60.54 0-32.45 26.4-58.851 58.851-58.851s58.851 26.4 58.851 58.851c0 9.268-5.105 27.294-29.425 60.539-7.106 9.711-14.145 18.404-19.559 24.835z" fill="#ff405c"/><path d="m73.387 144.003v148.82c3.645 0 7.29-1.531 9.868-4.595 5.414-6.431 12.453-15.124 19.557-24.835 24.32-33.246 29.425-51.271 29.425-60.539.001-32.45-26.399-58.851-58.85-58.851z" fill="#b10042"/></g><g><path d="m73.387 220.469c-8.284 0-15-6.716-15-15v-.122c0-8.284 6.716-15 15-15s15 6.716 15 15v.122c0 8.284-6.715 15-15 15z" fill="#e4e4ff"/><path d="m73.387 190.347v30.122c8.284 0 15-6.716 15-15v-.122c0-8.284-6.715-15-15-15z" fill="#c4c9f1"/></g></g><g><g><path d="m447.555 160.817c-5.158 6.127-14.579 6.127-19.737 0-5.414-6.431-12.453-15.124-19.556-24.834-13.424-18.351-29.425-43.749-29.425-60.54 0-32.45 26.4-58.851 58.851-58.851s58.851 26.4 58.851 58.851c0 9.268-5.105 27.294-29.425 60.539-7.106 9.71-14.145 18.404-19.559 24.835z" fill="#ff405c"/><path d="m437.686 16.592v148.82c3.645 0 7.289-1.531 9.868-4.595 5.414-6.431 12.453-15.124 19.557-24.835 24.32-33.246 29.425-51.271 29.425-60.539.001-32.451-26.4-58.851-58.85-58.851z" fill="#b10042"/></g><g><path d="m437.686 93.057c-8.284 0-15-6.716-15-15v-.122c0-8.284 6.716-15 15-15s15 6.716 15 15v.122c0 8.284-6.716 15-15 15z" fill="#e4e4ff"/><path d="m437.686 62.935v30.122c8.284 0 15-6.716 15-15v-.122c0-8.284-6.716-15-15-15z" fill="#c4c9f1"/></g></g><g><g><path d="m239.412 440.974c-5.158 6.127-14.579 6.127-19.737 0-5.414-6.431-12.453-15.124-19.557-24.834-13.424-18.35-29.425-43.749-29.425-60.539 0-32.45 26.4-58.851 58.85-58.851s58.851 26.4 58.851 58.851c0 9.268-5.105 27.293-29.425 60.539-7.103 9.709-14.143 18.403-19.557 24.834z" fill="#ff405c"/><path d="m229.544 296.749v148.82c3.645 0 7.29-1.531 9.868-4.595 5.414-6.431 12.453-15.125 19.557-24.835 24.32-33.246 29.425-51.272 29.425-60.539 0-32.45-26.4-58.851-58.85-58.851z" fill="#b10042"/></g><g><path d="m229.544 373.215c-8.284 0-15-6.716-15-15v-.122c0-8.284 6.716-15 15-15s15 6.716 15 15v.122c0 8.284-6.716 15-15 15z" fill="#e4e4ff"/><path d="m229.544 343.093v30.122c8.284 0 15-6.716 15-15v-.122c0-8.285-6.716-15-15-15z" fill="#c4c9f1"/></g></g></g></g></svg>