<svg height="512" viewBox="0 0 512 512" width="512" xmlns="http://www.w3.org/2000/svg" xmlns:xlink="http://www.w3.org/1999/xlink"><linearGradient id="linear-gradient" gradientUnits="userSpaceOnUse" x1="48.8" x2="444.45" y1="48.8" y2="444.45"><stop offset="0" stop-color="#a1ce62"/><stop offset="1" stop-color="#57c1ae"/></linearGradient><g id="Gradient"><path d="m142.86 75.43a22.88 22.88 0 0 0 -22.86 22.86c1.26 30.32 44.46 30.31 45.71 0a22.88 22.88 0 0 0 -22.85-22.86zm0 29.71a6.86 6.86 0 0 1 -6.86-6.85c.32-9.08 13.39-9.08 13.71 0a6.85 6.85 0 0 1 -6.85 6.85zm-5 19.81a27.84 27.84 0 0 0 -27.8 27.81c1.52 36.89 54.09 36.88 55.61 0a27.84 27.84 0 0 0 -27.77-27.76zm0 39.62a11.82 11.82 0 0 1 -11.8-11.81c.64-15.67 23-15.66 23.61 0a11.82 11.82 0 0 1 -11.77 11.81zm-44.53-59.43a17.93 17.93 0 0 0 -17.9 17.91c1 23.75 34.83 23.74 35.81 0a17.93 17.93 0 0 0 -17.91-17.91zm0 19.81a1.91 1.91 0 0 1 0-3.81 1.91 1.91 0 0 1 0 3.86zm9.91-31.62c.2-6.54 9.7-6.54 9.9 0-.2 6.55-9.7 6.55-9.9 0zm-4.95 64.38c-.21 6.55-9.71 6.55-9.91 0 .2-6.54 9.7-6.54 9.91 0zm74.28-24.71c-6.54-.2-6.54-9.7 0-9.9 6.55.15 6.55 9.65 0 9.9zm318.19 152.24c-8.35-8.62-23.51-6.17-28.67 4.71a18.79 18.79 0 0 1 -11.56 9.61l-11.75 3.44a119.32 119.32 0 0 0 -22.72-54.8l10.68-5.95a18.92 18.92 0 0 1 15-1.41 17.88 17.88 0 0 0 18.3-29.62l-31.26-31.27c-6.66-6.93-18.66-6.93-25.32 0a17.83 17.83 0 0 0 -4.28 18.36 18.8 18.8 0 0 1 -1.37 15l-5.88 10.69a119.39 119.39 0 0 0 -54.93-22.78l3.4-11.75a18.8 18.8 0 0 1 9.66-11.58 17.77 17.77 0 0 0 9.9-16c.2-9.61-8.28-18.09-17.89-17.89h-44.18a17.89 17.89 0 0 0 -8 33.88 18.8 18.8 0 0 1 9.65 11.64l3.33 11.71a119.32 119.32 0 0 0 -54.8 22.77l-5.92-10.75a18.86 18.86 0 0 1 -1.36-15c5.08-15-10.82-28.78-25-21.64a14 14 0 0 0 -13.61-2.38 8.59 8.59 0 0 1 -6.64-.68l-3.66-2a77.05 77.05 0 0 0 12.06-29c2.12.63 5.43 1.25 7.11 2.79a8.35 8.35 0 0 1 2.19 2.78 14.13 14.13 0 0 0 26.76-6.43v-27.38a14.13 14.13 0 0 0 -26.78-6.31 8.5 8.5 0 0 1 -5.26 4.38l-4 1.16a76.81 76.81 0 0 0 -12-29l3.65-2a8.62 8.62 0 0 1 6.85-.64 14 14 0 0 0 4.46.72c12.49.07 18.87-15.33 10-24.11l-19.4-19.39a14.05 14.05 0 0 0 -10-4.13c-9.5-.21-16.69 9.91-13.32 18.81a8.59 8.59 0 0 1 -.68 6.64l-2 3.66a77 77 0 0 0 -29.1-12.1l1.16-4a8.54 8.54 0 0 1 4.42-5.25 14.13 14.13 0 0 0 -6.31-26.75h-27.38a14.13 14.13 0 0 0 -6.31 26.76 8.21 8.21 0 0 1 2.77 2.2c1.5 1.62 2.15 5 2.77 7.08a77.05 77.05 0 0 0 -29 12.06l-2-3.65a8.56 8.56 0 0 1 -.69-6.64c3.37-8.9-3.81-19-13.32-18.82a14.05 14.05 0 0 0 -10 4.13l-19.41 19.36c-8.86 8.78-2.49 24.19 10 24.11a14.09 14.09 0 0 0 4.47-.72 8.6 8.6 0 0 1 6.85.64l3.64 2a76.81 76.81 0 0 0 -12 29.05l-4-1.16a8.54 8.54 0 0 1 -5.33-4.4 14.13 14.13 0 0 0 -26.75 6.31v27.38a14.13 14.13 0 0 0 26.76 6.31 8.21 8.21 0 0 1 2.2-2.77c1.62-1.5 5-2.15 7.08-2.77a77.05 77.05 0 0 0 12.06 29l-3.65 2a8.55 8.55 0 0 1 -6.64.69c-8.9-3.38-19 3.81-18.82 13.32a14.05 14.05 0 0 0 4.13 10l19.36 19.36c8.78 8.86 24.19 2.49 24.11-10 .16-2.49-1.13-4.7-1.16-7.16-.16-2.62 1.91-5.59 3.1-7.8a77.06 77.06 0 0 0 29 12c-.63 2.12-1.25 5.43-2.79 7.11a8.35 8.35 0 0 1 -2.78 2.19 14.13 14.13 0 0 0 6.35 26.83h27.38a14.13 14.13 0 0 0 6.31-26.78 8.5 8.5 0 0 1 -4.38-5.26l-1.16-4a76.81 76.81 0 0 0 29.05-12c1.18 2.23 3.28 5.16 3.1 7.8 0 2.45-1.32 4.66-1.16 7.16a14 14 0 0 0 3.18 8.94c-7.08 14.05 6.46 30 21.64 25a18.9 18.9 0 0 1 15 1.41l10.68 5.95a119.32 119.32 0 0 0 -22.73 54.78l-11.75-3.4a18.8 18.8 0 0 1 -11.58-9.66 17.77 17.77 0 0 0 -16-9.9c-9.61-.2-18.09 8.28-17.89 17.89v44.22a17.89 17.89 0 0 0 33.88 8 18.8 18.8 0 0 1 11.64-9.65l11.71-3.33a119.32 119.32 0 0 0 22.77 54.76l-10.75 5.92a18.86 18.86 0 0 1 -15 1.36 17.8 17.8 0 0 0 -18.32 4.3c-6.92 6.65-6.93 18.66 0 25.31l31.26 31.27a17.89 17.89 0 0 0 29.62-18.32 18.76 18.76 0 0 1 1.41-15l5.95-10.68a119.41 119.41 0 0 0 54.7 22.71l-3.34 11.72a18.79 18.79 0 0 1 -9.61 11.62 17.88 17.88 0 0 0 8 33.89h44.22c9.6.2 18.09-8.28 17.89-17.89a17.78 17.78 0 0 0 -9.95-16 18.79 18.79 0 0 1 -9.61-11.56l-3.47-11.8a119.32 119.32 0 0 0 54.8-22.72l6 10.68a18.75 18.75 0 0 1 1.41 15 17.88 17.88 0 0 0 29.62 18.3l31.27-31.26c6.93-6.66 6.93-18.66 0-25.32a17.83 17.83 0 0 0 -18.36-4.28 18.8 18.8 0 0 1 -15-1.37l-10.74-5.88a119.32 119.32 0 0 0 22.78-54.79l11.72 3.34a18.35 18.35 0 0 1 6.82 3.59 19 19 0 0 1 4.8 6 17.88 17.88 0 0 0 33.89-8v-44.18a17.78 17.78 0 0 0 -5.25-12.65zm-278.36-157.44a24.59 24.59 0 0 0 11.6-7.37v15.14a24.81 24.81 0 0 0 -12.37-7.57zm-168.7.41a24.57 24.57 0 0 0 -11.7 7.36v-15.13a24.8 24.8 0 0 0 12.37 7.56zm380.1 198.21a104.15 104.15 0 0 1 -97.8 97.4 100 100 0 0 1 -12.12 0 104.15 104.15 0 0 1 -97.67-97.67 100 100 0 0 1 0-12.12c3-56.61 52.53-101.35 109.8-97.84a104.14 104.14 0 0 1 97.81 97.81 100 100 0 0 1 0 12.12c-.01.11-.02.21-.02.3zm-11.93-105.42a35 35 0 0 0 2.51-27.83 1.89 1.89 0 0 1 3.12-1.93l31.27 31.28a1.88 1.88 0 0 1 0 2.67 1.91 1.91 0 0 1 -1.92.45 34.82 34.82 0 0 0 -27.85 2.59l-13.56 7.56-1.09-1.1zm-96.95-35.83a34.75 34.75 0 0 0 -17.92-21.6 1.89 1.89 0 0 1 .86-3.57h44.22a1.91 1.91 0 0 1 1.89 1.89 1.93 1.93 0 0 1 -1.11 1.72c-16.05 8.32-17.58 20.81-22.16 36.4h-1.59zm-114.38 5.4-10 10a24.54 24.54 0 0 0 -3.42-13.41 24.76 24.76 0 0 0 13.42 3.39zm-69-1.33h-.1c-36.19 2.29-67-28.5-64.7-64.69 6.9-76.77 115.58-76.73 122.46 0 2.07 33.72-24.28 62.87-57.63 64.67zm56-121a24.67 24.67 0 0 0 3-13.4l10.71 10.71a24.88 24.88 0 0 0 -14.1 3.4zm-51.98-36.24a24.8 24.8 0 0 0 -7.56 12.37 24.78 24.78 0 0 0 -7.57-12.37zm-79.28 33.43c-.51 0-1 0-1.52 0l10.71-10.66a24.82 24.82 0 0 0 3.39 14.11 24.84 24.84 0 0 0 -12.58-3.45zm12.25 122.34a24.61 24.61 0 0 0 -3 13.47l-10.76-10.71a24.82 24.82 0 0 0 14.11-3.39zm51.9 36.23a24.81 24.81 0 0 0 7.57-12.37 24.75 24.75 0 0 0 7.57 12.37zm100.57 4.23a34.74 34.74 0 0 0 -27.88-2.61 1.93 1.93 0 0 1 -1.93-.44 1.9 1.9 0 0 1 0-2.68l3.42-3.42c1.48-.19 20.64-20.19 22.24-21.56a14.79 14.79 0 0 0 2.2-2.87l3.42-3.42a1.89 1.89 0 0 1 3.1 2 34.91 34.91 0 0 0 2.56 27.77l7.56 13.71-1.09 1.1zm-35.89 96.85a34.75 34.75 0 0 0 -21.54 17.92 1.89 1.89 0 0 1 -3.57-.86v-44.25a1.91 1.91 0 0 1 1.89-1.89 1.93 1.93 0 0 1 1.72 1.11c8.32 16.05 20.81 17.58 36.4 22.16q0 .8 0 1.59zm43.12 93.92a34.8 34.8 0 0 0 -2.61 27.88 1.89 1.89 0 0 1 -3.12 1.94l-31.27-31.32a1.81 1.81 0 0 1 -.55-1.33 1.85 1.85 0 0 1 .54-1.33 1.94 1.94 0 0 1 2-.44c17.24 5.47 27.2-2.29 41.47-10.09l1.1 1.09zm96.83 36a34.9 34.9 0 0 0 17.94 21.43 1.91 1.91 0 0 1 .48 3 1.82 1.82 0 0 1 -1.33.56h-44.26a1.89 1.89 0 0 1 -.83-3.58 34.76 34.76 0 0 0 17.86-21.56l4.22-14.85h1.59zm94-43.1a35 35 0 0 0 27.83 2.51 1.89 1.89 0 0 1 1.93 3.12l-31.32 31.24a1.88 1.88 0 0 1 -3.12-1.92 34.82 34.82 0 0 0 -2.61-27.85l-7.56-13.56 1.1-1.09zm61-69.76a1.89 1.89 0 0 1 -3.58.83 34.81 34.81 0 0 0 -21.56-17.86l-14.92-4.25q0-.8 0-1.59c15.65-4.58 28.1-6.13 36.44-22.23a1.89 1.89 0 0 1 3.57.85zm-136.06-102.14a32 32 0 0 0 -32 32c1.76 42.45 62.25 42.44 64 0a32 32 0 0 0 -32-32zm0 48a16 16 0 0 1 -16-16c.88-21.23 31.12-21.22 32 0a16 16 0 0 1 -16 16zm-8 32a40 40 0 0 0 -40 40c2.2 53.07 77.81 53.05 80 0a40 40 0 0 0 -40-40zm0 64a24 24 0 0 1 -24-24c1.32-31.84 46.69-31.83 48 0a24 24 0 0 1 -24 24zm-72-96a24 24 0 0 0 -24 24c1.32 31.84 46.69 31.83 48 0a24 24 0 0 0 -24-24zm0 32a8 8 0 0 1 -8-8c.4-10.6 15.6-10.6 16 0a8 8 0 0 1 -8 8zm32-56a8 8 0 0 1 -8 8c-10.6-.39-10.6-15.61 0-16a8 8 0 0 1 8 8zm-24 104a8 8 0 0 1 -8 8c-10.6-.39-10.6-15.61 0-16a8 8 0 0 1 8 8zm128-48a8 8 0 0 1 -8 8c-10.6-.39-10.6-15.61 0-16a8 8 0 0 1 8 8z" fill="url(#linear-gradient)"/></g></svg>